<?xml version="1.0" standalone="no"?>
<!DOCTYPE svg PUBLIC "-//W3C//DTD SVG 20010904//EN"
 "http://www.w3.org/TR/2001/REC-SVG-20010904/DTD/svg10.dtd">
<svg version="1.0" xmlns="http://www.w3.org/2000/svg"
 width="512.000000pt" height="512.000000pt" viewBox="0 0 512.000000 512.000000"
 preserveAspectRatio="xMidYMid meet">
<metadata>
Created by potrace 1.14, written by Peter Selinger 2001-2017
</metadata>
<g transform="translate(0.000000,512.000000) scale(0.100000,-0.100000)"
fill="#000000" stroke="none">
<path d="M2366 4688 c-298 -26 -639 -136 -895 -289 -558 -334 -931 -895 -1026
-1544 -22 -147 -22 -443 0 -590 148 -1008 952 -1758 1967 -1836 442 -34 924
89 1298 332 341 221 590 497 765 848 150 303 218 598 219 951 0 167 -23 402
-41 420 -2 3 -475 6 -1049 8 l-1044 3 0 -430 0 -431 600 0 600 0 -20 -50
c-128 -324 -420 -603 -758 -724 -260 -93 -583 -93 -844 0 -313 111 -578 348
-719 641 -28 59 -55 116 -60 125 -21 42 -60 219 -70 324 -23 223 19 451 120
659 221 452 650 726 1141 727 306 1 578 -93 804 -276 l53 -44 303 303 c272
272 302 305 290 320 -27 33 -163 138 -269 209 -393 263 -884 387 -1365 344z"/>
</g>
</svg>
